<svg width="20" height="20" viewBox="0 0 20 20" fill="none" xmlns="http://www.w3.org/2000/svg">
<path d="M10 1.66666C9.33696 1.66666 8.70107 1.93005 8.23223 2.39889C7.76339 2.86773 7.5 3.50362 7.5 4.16666V9.99999C7.5 10.663 7.76339 11.2989 8.23223 11.7678C8.70107 12.2366 9.33696 12.5 10 12.5C10.663 12.5 11.2989 12.2366 11.7678 11.7678C12.2366 11.2989 12.5 10.663 12.5 9.99999V4.16666C12.5 3.50362 12.2366 2.86773 11.7678 2.39889C11.2989 1.93005 10.663 1.66666 10 1.66666Z" fill="black" stroke="black" stroke-width="1.5" stroke-linecap="round" stroke-linejoin="round"/>
<path d="M15.8332 8.33334V10C15.8332 11.5471 15.2186 13.0308 14.1246 14.1248C13.0307 15.2188 11.5469 15.8333 9.99984 15.8333C8.45274 15.8333 6.96901 15.2188 5.87505 14.1248C4.78109 13.0308 4.1665 11.5471 4.1665 10V8.33334" stroke="black" stroke-width="1.5" stroke-linecap="round" stroke-linejoin="round"/>
<path d="M10 15.8333V18.3333" stroke="black" stroke-width="1.5" stroke-linecap="round" stroke-linejoin="round"/>
</svg>
