<svg width="18" height="18" viewBox="0 0 18 18" fill="none" xmlns="http://www.w3.org/2000/svg">
<path d="M6.375 10.875C6.87228 10.875 7.34919 10.6775 7.70083 10.3258C8.05246 9.97419 8.25 9.49728 8.25 9C8.25 7.965 7.875 7.5 7.5 6.75C6.696 5.14275 7.332 3.7095 9 2.25C9.375 4.125 10.5 5.925 12 7.125C13.5 8.325 14.25 9.75 14.25 11.25C14.25 11.9394 14.1142 12.6221 13.8504 13.2591C13.5865 13.896 13.1998 14.4748 12.7123 14.9623C12.2248 15.4498 11.646 15.8365 11.0091 16.1004C10.3721 16.3642 9.68944 16.5 9 16.5C8.31056 16.5 7.62787 16.3642 6.99091 16.1004C6.35395 15.8365 5.7752 15.4498 5.28769 14.9623C4.80018 14.4748 4.41347 13.896 4.14963 13.2591C3.8858 12.6221 3.75 11.9394 3.75 11.25C3.75 10.3853 4.07475 9.5295 4.5 9C4.5 9.49728 4.69754 9.97419 5.04917 10.3258C5.40081 10.6775 5.87772 10.875 6.375 10.875V10.875Z" stroke="#8E8E8E" stroke-linecap="round" stroke-linejoin="round"/>
</svg>
