<svg width="20" height="16" viewBox="0 0 20 16" fill="none" xmlns="http://www.w3.org/2000/svg">
<path d="M7 8L9 10L11.5 7" stroke="#C4C4C4" stroke-linecap="round" stroke-linejoin="round"/>
<path d="M15 14H5C2.51472 14 0.5 11.9853 0.5 9.5V8.85714C0.5 6.7269 2.2269 5 4.35714 5C4.71218 5 5 4.71218 5 4.35714C5 2.2269 6.7269 0.5 8.85714 0.5H9.64286C11.7731 0.5 13.5 2.2269 13.5 4.35714C13.5 4.71218 13.7878 5 14.1429 5H15C17.4853 5 19.5 7.01472 19.5 9.5C19.5 11.9853 17.4853 14 15 14Z" stroke="#C4C4C4"/>
</svg>
